<svg height="512pt" viewBox="0 0 512 512.001" width="512pt" xmlns="http://www.w3.org/2000/svg"><path d="m382.714844 503.832031h-285.90625c-11.125 0-20.453125-8.394531-21.621094-19.453125l-33.816406-319.710937h396.777344l-33.8125 319.710937c-1.171876 11.058594-10.5 19.453125-21.621094 19.453125zm0 0" fill="#ffe469"/><path d="m385.148438 164.667969-33.8125 319.710937c-1.171876 11.058594-10.5 19.453125-21.621094 19.453125h53c11.121094 0 20.449218-8.394531 21.621094-19.453125l33.8125-319.710937zm0 0" fill="#ffda30"/><path d="m439.761719 138.5h-400v-69.679688c0-33.867187 27.453125-61.320312 61.320312-61.320312h277.355469c33.867188 0 61.324219 27.453125 61.324219 61.320312zm0 0" fill="#ffe469"/><path d="m378.4375 7.5h-51c33.867188 0 61.324219 27.453125 61.324219 61.320312v69.679688h51v-69.679688c0-33.867187-27.457031-61.320312-61.324219-61.320312zm0 0" fill="#ffda30"/><path d="m446.054688 180.5h-417.078126c-11.875 0-21.5-9.625-21.5-21.5s9.625-21.5 21.5-21.5h417.078126c11.871093 0 21.5 9.625 21.5 21.5s-9.625 21.5-21.5 21.5zm0 0" fill="#f7ca00"/><path d="m446.054688 137.5h-44c11.875 0 21.5 9.625 21.5 21.5s-9.625 21.5-21.5 21.5h44c11.875 0 21.5-9.625 21.5-21.5s-9.625-21.5-21.5-21.5zm0 0" fill="#ebb400"/><path d="m352.824219 137.5h-226.125v-35.609375c0-11.261719 9.128906-20.390625 20.386719-20.390625h185.347656c11.257812 0 20.386718 9.128906 20.386718 20.390625v35.609375zm0 0" fill="#ebb400"/><path d="m504.476562 288.71875v-17.917969c0-5.769531-1.472656-11.4375-4.277343-16.476562-4.289063-7.691407-12.179688-18.214844-25.273438-24.292969v-30.675781h-55.871093v30.675781c-13.09375 6.078125-20.984376 16.601562-25.269532 24.292969-2.808594 5.039062-4.277344 10.707031-4.277344 16.476562v17.917969c0 7.214844 2.273438 14.261719 6.585938 20.046875 18.09375 24.28125 18.09375 57.746094 0 82.023437-4.3125 5.785157-6.585938 12.835938-6.585938 20.050782v59.8125c0 18.695312 15.152344 33.847656 33.847657 33.847656h47.269531c18.695312 0 33.847656-15.152344 33.847656-33.847656v-59.8125c0-7.214844-2.273437-14.265625-6.585937-20.050782-18.097657-24.277343-18.097657-57.742187 0-82.023437 4.3125-5.785156 6.589843-12.832031 6.589843-20.046875zm0 0" fill="#f0f0f0"/><path d="m504.476562 288.71875v-17.917969c0-5.769531-1.472656-11.4375-4.277343-16.476562-4.289063-7.691407-12.179688-18.214844-25.273438-24.292969v-30.675781h-44v30.675781c13.09375 6.078125 20.984375 16.601562 25.273438 24.292969 2.804687 5.039062 4.277343 10.707031 4.277343 16.476562v17.917969c0 7.214844-2.277343 14.261719-6.585937 20.046875-18.097656 24.28125-18.097656 57.746094 0 82.023437 4.308594 5.785157 6.585937 12.835938 6.585937 20.050782v59.8125c0 18.695312-15.15625 33.847656-33.851562 33.847656h44c18.695312 0 33.851562-15.152344 33.851562-33.847656v-59.8125c0-7.214844-2.277343-14.265625-6.585937-20.050782-18.097656-24.277343-18.097656-57.742187 0-82.023437 4.308594-5.785156 6.585937-12.832031 6.585937-20.046875zm0 0" fill="#e8e8e8"/><path d="m479.367188 200.429688h-64.75c-5.261719 0-9.53125-4.269532-9.53125-9.53125v-15.324219c0-5.261719 4.269531-9.527344 9.53125-9.527344h64.75c5.261718 0 9.527343 4.265625 9.527343 9.527344v15.324219c0 5.261718-4.265625 9.53125-9.527343 9.53125zm0 0" fill="#97c9e8"/><path d="m497.890625 390.789062c-18.097656-24.28125-18.097656-57.742187 0-82.023437 2.039063-2.738281 3.605469-5.761719 4.707031-8.949219h-111.214844c1.105469 3.1875 2.671876 6.210938 4.710938 8.949219 18.09375 24.28125 18.09375 57.742187 0 82.023437-2.605469 3.496094-4.453125 7.460938-5.519531 11.636719h112.832031c-1.0625-4.175781-2.910156-8.140625-5.515625-11.636719zm0 0" fill="#97c9e8"/><path d="m497.890625 390.789062c-18.097656-24.28125-18.097656-57.742187 0-82.023437 2.039063-2.738281 3.605469-5.761719 4.707031-8.949219h-44c-1.101562 3.1875-2.667968 6.210938-4.707031 8.949219-18.097656 24.28125-18.097656 57.742187 0 82.023437 2.605469 3.496094 4.453125 7.460938 5.515625 11.636719h44c-1.0625-4.175781-2.910156-8.140625-5.515625-11.636719zm0 0" fill="#60b6ff"/><path d="m201.761719 412.871094h-29.96875c-7.140625 0-13.539063-3.695313-17.109375-9.882813-3.574219-6.183593-3.574219-13.570312 0-19.757812l26.050781-45.125 1.53125 6.605469c2.1875 9.4375 16.785156 5.992187 14.613281-3.386719l-5.390625-23.269531c-.910156-3.921876-4.761719-6.425782-8.71875-5.671876l-24.34375 4.664063c-9.460937 1.8125-6.648437 16.554687 2.820313 14.730469l6.542968-1.25-26.097656 45.203125c-6.285156 10.882812-6.285156 23.875 0 34.757812 6.28125 10.882813 17.535156 17.382813 30.101563 17.382813h29.96875c9.628906 0 9.644531-15 0-15zm0 0"/><path d="m194.011719 300.109375c3.585937 2.070313 8.171875.84375 10.242187-2.742187l18.394532-31.855469c3.570312-6.1875 9.96875-9.882813 17.113281-9.882813 7.140625 0 13.539062 3.695313 17.109375 9.882813l33.390625 57.828125c-3.839844-.894532-8.179688-2.714844-11.839844-.4375-5.511719 3.429687-4.25 12.09375 2.214844 13.597656l23.265625 5.417969c3.808594.886719 7.898437-1.539063 8.933594-5.324219l6.542968-23.90625c2.542969-9.289062-11.921875-13.265625-14.464844-3.960938l-1.855468 6.777344-33.195313-57.492187c-6.28125-10.882813-17.535156-17.382813-30.101562-17.382813-12.566407 0-23.820313 6.5-30.105469 17.382813l-18.390625 31.855469c-2.070313 3.585937-.84375 8.171874 2.746094 10.242187zm0 0"/><path d="m326.003906 355.25c-4.816406-8.339844-17.808594-.851562-12.988281 7.5l11.824219 20.480469c3.570312 6.1875 3.570312 13.574219 0 19.757812-3.570313 6.1875-9.96875 9.882813-17.113282 9.882813h-60.40625l4.910157-5.300782c6.542969-7.066406-4.453125-17.265624-11.007813-10.191406l-16.226562 17.527344c-2.738282 2.957031-2.652344 7.546875.199218 10.398438l17.523438 17.523437c6.765625 6.765625 17.398438-3.8125 10.609375-10.605469l-4.355469-4.355468h58.753906c12.5625 0 23.816407-6.496094 30.101563-17.378907 6.285156-10.882812 6.285156-23.875 0-34.757812zm0 0"/><path d="m511.976562 288.71875v-17.917969c0-7.035156-1.808593-13.992187-5.226562-20.125-4.359375-7.820312-11.996094-18.164062-24.324219-25.207031v-17.539062h6.46875c4.144531 0 7.5-3.359376 7.5-7.5v-34.382813c0-4.144531-3.355469-7.5-7.5-7.5h-13.851562c-.238281-15.378906-12.5-27.886719-27.78125-28.515625v-61.210938c0-37.945312-30.875-68.820312-68.824219-68.820312h-17.460938c-9.632812 0-9.644531 15 0 15h17.460938c29.679688 0 53.824219 24.144531 53.824219 53.820312v61.179688h-71.941407v-28.109375c0-15.378906-12.511718-27.890625-27.890624-27.890625h-185.339844c-15.378906 0-27.890625 12.511719-27.890625 27.890625v28.109375h-71.9375v-61.179688c0-29.675781 24.144531-53.820312 53.820312-53.820312h217.894531c9.628907 0 9.644532-15 0-15h-217.894531c-37.949219 0-68.820312 30.875-68.820312 68.820312v61.179688c-15.570313-.253906-29.726563 8.785156-31.992188 25.078125-2.382812 17.128906 11.417969 32.921875 28.707031 32.921875h7.320313l31.429687 297.167969c1.578126 14.917969 14.082032 26.164062 29.082032 26.164062h285.902344c6.746093 0 12.984374-2.28125 17.953124-6.140625 6.519532 4.296875 14.316407 6.808594 22.691407 6.808594h33.621093c9.628907 0 9.667969-15 0-15h-33.621093c-12.117188 0-22.34375-8.222656-25.40625-19.382812h32.414062c9.628907 0 9.644531-15 0-15h-33.355469v-51.777344c0-.308594.027344-.609375.035157-.914063h99.894531c.011719.304688.039062.605469.039062.914063v18.46875h-34.40625c-9.628906 0-9.644531 15 0 15h34.40625v26.34375c0 6.867187-2.628906 13.367187-7.398437 18.300781-6.742187 6.984375 4.113281 17.332031 10.789063 10.421875 7.484374-7.746094 11.605468-17.949219 11.605468-28.722656v-59.8125c0-8.835938-2.867187-17.546875-8.070312-24.53125-16.03125-21.507813-16.03125-51.550782 0-73.058594 5.207031-6.984375 8.074218-15.695312 8.074218-24.53125zm-20.347656 106.207031h-89.273437c18.972656-25.765625 19.597656-61.203125 1.882812-87.609375h85.503907c-17.714844 26.40625-17.085938 61.847656 1.886718 87.609375zm-394.820312 101.40625c-7.308594 0-13.398438-5.480469-14.164063-12.742187l-31.265625-295.589844h33.597656c9.628907 0 9.640626-15 0-15h-56c-18.015624 0-18.050781-28 0-28h417.078126c7.5625 0 13.730468 6.035156 13.976562 13.546875h-54.945312c-4.140626 0-7.5 3.355469-7.5 7.5v6.953125h-271.609376c-9.632812 0-9.644531 15 0 15h271.609376v12.429688c0 4.140624 3.359374 7.5 7.5 7.5h6.46875v17.539062c-12.324219 7.042969-19.960938 17.382812-24.320313 25.207031-3.417969 6.132813-5.226563 13.09375-5.226563 20.125v17.917969c0 3.898438.5625 7.769531 1.632813 11.484375.074219 1.460937.5625 2.8125 1.359375 3.9375 1.296875 3.242187 3 6.3125 5.082031 9.105469 16.027344 21.507812 16.027344 51.554687 0 73.0625-5.207031 6.984375-8.070312 15.695312-8.070312 24.527344v59.816406c0 8.890625 2.828125 17.128906 7.625 23.878906-2.058594 1.140625-4.414063 1.800781-6.921875 1.800781zm37.390625-394.441406c0-7.109375 5.78125-12.890625 12.890625-12.890625h185.34375c7.105468 0 12.890625 5.78125 12.890625 12.890625v28.109375h-211.125zm337.570312 134.941406c11.257813 5.226563 18.109375 14.382813 21.878907 21.144531 4.96875 8.917969 4.445312 24.289063 3.0625 34.339844h-99.4375c-1.378907-10.023437-1.894532-25.449218 3.0625-34.339844 3.769531-6.761718 10.621093-15.917968 21.878906-21.144531 2.644531-1.230469 4.339844-3.882812 4.339844-6.804687v-22.097656h40.871093v22.097656c.003907 2.921875 1.695313 5.574218 4.34375 6.804687zm-59.183593-43.902343v-19.382813h68.808593v19.382813zm0 0"/></svg>