<svg height="512pt" viewBox="0 0 512 512.00015" width="512pt" xmlns="http://www.w3.org/2000/svg"><path d="m332 250h89v46.5h-91.5zm0 0" fill="#49cb5c"/><path d="m47.058594 73.234375c-.222656-36.1875 33.023437-65.734375 33.023437-65.734375s33.617188 29.128906 33.84375 65.316406c.226563 36.191406-33.023437 65.738282-33.023437 65.738282s-33.617188-29.128907-33.84375-65.320313zm0 0" fill="#49cb5c"/><path d="m97.984375 85.296875c19.292969-19.539063 52.984375-17.550781 52.984375-17.550781s2.410156 33.664062-16.886719 53.199218c-19.292969 19.539063-52.984375 17.550782-52.984375 17.550782s-2.40625-33.664063 16.886719-53.199219zm0 0" fill="#09a66d"/><path d="m131.800781 389.972656h-102.191406l25.144531-211.800781h51.902344zm0 0" fill="#f0f0f0"/><path d="m106.65625 178.171875h-41l25.144531 211.800781h41zm0 0" fill="#e8e8e8"/><path d="m106.65625 178.171875h-51.902344l-5.835937 49.160156h63.574219zm0 0" fill="#49cb5c"/><path d="m106.65625 178.171875h-41l5.835938 49.160156h41zm0 0" fill="#09a66d"/><path d="m412.5 199.832031v91.667969h-71v-91.667969h-92v91.667969l-95.585938 98.011719h-146.414062v114.988281h497v-304.667969zm0 0" fill="#e8e8e8"/><path d="m308.5 199.832031h33v91.667969h-33zm0 0" fill="#dbdbdb"/><path d="m471.5 199.832031v304.667969h33v-304.667969zm0 0" fill="#dbdbdb"/><g fill="#49cb5c"><path d="m273.203125 352.296875h32.015625v98.863281h-32.015625zm0 0"/><path d="m348.207031 352.296875h32.015625v98.863281h-32.015625zm0 0"/><path d="m423.210938 352.296875h32.015624v98.863281h-32.015624zm0 0"/></g><path d="m504.5 75.1875c0-17.421875-13.78125-31.539062-30.785156-31.539062-.667969 0-1.332032.019531-1.992188.066406-3.78125.25-7.183594-2.089844-8.394531-5.679688-5.996094-17.769531-22.457031-30.535156-41.839844-30.535156-24.453125 0-44.273437 20.308594-44.273437 45.359375v.027344c-12.25.417969-22.683594 8.160156-27.257813 19.09375-2.261719 5.398437 1.785157 11.355469 7.640625 11.355469h138.660156c4.480469 0 8.230469-3.582032 8.242188-8.066407 0-.027343 0-.054687 0-.082031zm0 0" fill="#cbe6f7"/><path d="m331.5 146.351562c0-17.421874-13.78125-31.539062-30.785156-31.539062-.667969 0-1.332032.019531-1.992188.066406-3.78125.25-7.183594-2.089844-8.394531-5.679687-5.996094-17.769531-22.460937-30.535157-41.839844-30.535157-24.453125 0-44.273437 20.308594-44.273437 45.359376v.027343c-12.25.417969-22.683594 8.164063-27.257813 19.09375-2.261719 5.402344 1.785157 11.355469 7.640625 11.355469h138.65625c4.484375 0 8.234375-3.582031 8.246094-8.066406 0-.027344 0-.054688 0-.082032zm0 0" fill="#cbe6f7"/><path d="m504.5 192.332031h-92c-4.144531 0-7.5 3.355469-7.5 7.5v42.667969h-56v-42.667969c0-4.144531-3.355469-7.5-7.5-7.5h-92c-4.140625 0-7.5 3.355469-7.5 7.5v88.617188l-91.25 93.5625h-12.339844l-24.304687-204.722657c-.449219-3.773437-3.644531-6.617187-7.449219-6.617187h-17.65625v-24.761719c12.1875-.664062 35.011719-4.09375 50.417969-19.695312 21.433593-21.703125 19.140625-57.492188 19.03125-59.003906-.269531-3.757813-3.28125-6.730469-7.039063-6.953126-.9375-.050781-14.976562-.773437-30.625 3.800782-4.683594-34.863282-34.425781-61.042969-35.789062-62.226563-2.847656-2.46875-7.078125-2.4375-9.894532.0625-1.460937 1.296875-35.785156 32.25-35.542968 71.386719.214844 34.230469 26.792968 61.871094 34.441406 69.121094v28.273437h-19.246094c-3.800781 0-7 2.839844-7.445312 6.613281l-8.527344 71.828126c-1.136719 9.5625 13.757812 11.347656 14.894531 1.769531l1.90625-16.054688h50.25l17.472657 147.179688h-85.195313l11.292969-95.125c1.132812-9.574219-13.742188-11.488281-14.898438-1.769531l-11.5 96.894531h-15.503906c-4.140625 0-7.5 3.359375-7.5 7.5v114.988281c0 4.144531 3.359375 7.5 7.5 7.5h497c4.144531 0 7.5-3.355469 7.5-7.5v-76.5c0-9.628906-15-9.644531-15 0v69h-482v-99.988281h138.914062c2.019532 0 3.957032-.816407 5.367188-2.261719l95.585938-98.015625c1.367187-1.398437 2.132812-3.277344 2.132812-5.234375v-84.167969h77v84.167969c0 4.144531 3.355469 7.5 7.5 7.5h71c4.144531 0 7.5-3.355469 7.5-7.5v-84.167969h77v181.667969c0 9.628906 15 9.644531 15 0v-189.167969c0-4.140625-3.355469-7.5-7.5-7.5zm-155.5 65.167969h56v26.5h-56zm-249.003906-71.828125 4.054687 34.160156h-46.691406l4.058594-34.160156zm43.460937-110.320313c-.480469 10.042969-3.039062 28.507813-14.710937 40.324219-11.679688 11.828125-30.125 14.613281-40.152344 15.214844.136719-2.882813.449219-6.472656 1.109375-10.433594 1.472656-8.835937 5.03125-21.195312 13.617187-29.890625 11.671876-11.820312 30.105469-14.609375 40.136719-15.214844zm-50.808593 4.675782c-11.855469 12.003906-16.445313 28.308594-18.167969 40.746094-8.894531-10.96875-19.800781-28.316407-19.921875-47.585938-.152344-24.207031 16.921875-45.753906 25.589844-55.125 8.429687 8.886719 24.714843 28.878906 26.164062 51.859375-4.855469 2.613281-9.53125 5.917969-13.664062 10.105469zm0 0"/><path d="m305.21875 344.796875h-32.015625c-4.140625 0-7.5 3.355469-7.5 7.5v98.863281c0 4.144532 3.359375 7.5 7.5 7.5h32.015625c4.144531 0 7.5-3.355468 7.5-7.5v-98.863281c0-4.140625-3.359375-7.5-7.5-7.5zm-7.5 98.863281h-17.015625v-83.863281h17.015625zm0 0"/><path d="m380.222656 344.796875h-32.015625c-4.140625 0-7.5 3.355469-7.5 7.5v98.863281c0 4.144532 3.359375 7.5 7.5 7.5h32.015625c4.140625 0 7.5-3.355468 7.5-7.5v-98.863281c0-4.140625-3.359375-7.5-7.5-7.5zm-7.5 98.863281h-17.015625v-83.863281h17.015625zm0 0"/><path d="m455.226562 344.796875h-32.015624c-4.140626 0-7.5 3.355469-7.5 7.5v98.863281c0 4.144532 3.359374 7.5 7.5 7.5h32.015624c4.140626 0 7.5-3.355468 7.5-7.5v-98.863281c0-4.140625-3.359374-7.5-7.5-7.5zm-7.5 98.863281h-17.015624v-83.863281h17.015624zm0 0"/><path d="m219.5 444h-170c-4.140625 0-7.5 3.355469-7.5 7.5s3.359375 7.5 7.5 7.5h170c4.140625 0 7.5-3.355469 7.5-7.5s-3.359375-7.5-7.5-7.5zm0 0"/><path d="m473.71875 36.148438c-1.328125.5625-2.421875.390624-3.285156-.511719-7.191406-21.316407-26.863282-35.636719-48.945313-35.636719-26.359375 0-48.183593 20.21875-51.371093 46.265625-11.953126 2.667969-22.179688 11.113281-27.078126 22.820313-4.269531 10.1875 3.597657 21.75 14.558594 21.75h80.402344c9.640625 0 9.785156-15 0-15h-80.402344c-.585937-.085938-.824218-.40625-.722656-.960938 3.558594-8.5 11.640625-14.1875 20.597656-14.492188 4.039063-.136718 7.242188-3.453124 7.242188-7.496093 0-.035157 0-.074219 0-.109375.042968-20.839844 16.523437-37.777344 36.773437-37.777344 15.644531 0 29.601563 10.21875 34.730469 25.429688 2.679688 7.933593 9.8125 10.71875 17.496094 10.71875 12.839844 0 23.285156 10.78125 23.285156 24.101562 0 .300781-.363281.585938-.746094.585938h-16.253906c-9.640625 0-9.785156 15 0 15h16.257812c8.65625 0 15.71875-6.972657 15.742188-15.546876 0-.007812 0-.097656 0-.101562 0-21.527344-17.175781-39.039062-38.28125-39.039062zm0 0"/><path d="m184.597656 162h138.660156c8.625 0 15.609376-7.113281 15.742188-15.648438 0-21.527343-17.175781-39.042968-38.28125-39.042968-1.324219.5625-2.417969.394531-3.285156-.507813-7.191406-21.316406-26.859375-35.636719-48.945313-35.636719-26.359375 0-48.183593 20.21875-51.371093 46.265626-11.949219 2.667968-22.179688 11.113281-27.078126 22.820312-4.265624 10.1875 3.597657 21.75 14.558594 21.75zm139.402344-15.585938c0 .300782-.363281.585938-.742188.585938h-138.660156c-.582031-.085938-.824218-.40625-.722656-.960938 3.558594-8.5 11.644531-14.1875 20.59375-14.492187 4.042969-.136719 7.246094-3.453125 7.246094-7.496094 0-.023437 0-.050781 0-.078125.027344-20.851562 16.515625-37.808594 36.773437-37.808594 15.644531 0 29.601563 10.21875 34.734375 25.433594 2.679688 7.941406 9.804688 10.710938 17.496094 10.710938 12.839844 0 23.28125 10.785156 23.28125 24.042968zm0 0"/></svg>