<svg height="511pt" viewBox="0 0 511.998 511" width="511pt" xmlns="http://www.w3.org/2000/svg"><path d="m350.5 119.996094 3.339844-57.601563c2.03125-32.0625-25.875-57.910156-57.683594-53.433593l-176.5 24.851562c-.984375.136719-1.964844.289062-2.9375.453125-40.480469 6.730469-76.230469 38.195313-91.171875 76.410156zm0 0" fill="#97c9e8"/><path d="m296.15625 8.964844-22.113281 3.113281c19.507812 7.824219 33.242187 27.488281 31.796875 50.316406l-3.257813 56.226563 47.917969 1.375 3.339844-57.601563c2.03125-32.0625-25.875-57.910156-57.683594-53.429687zm0 0" fill="#60b6ff"/><path d="m88.746094 505.53125h215.785156c14.71875 0 26.851562-11.546875 27.578125-26.25l17.109375-346.511719h-278.878906zm0 0" fill="#97c9e8"/><path d="m305.21875 132.769531-17.109375 346.511719c-.726563 14.703125-12.859375 26.25-27.578125 26.25h44c14.71875 0 26.851562-11.546875 27.578125-26.25l17.109375-346.511719zm0 0" fill="#60b6ff"/><path d="m46.410156 154.859375h309.816406c9.347657 0 16.921876-7.574219 16.921876-16.921875v-10.332031c0-9.347657-7.574219-16.921875-16.921876-16.921875h-286.101562l-44.582031-.007813zm0 0" fill="#26a5fd"/><path d="m356.226562 110.679688h-48c9.347657 0 16.921876 7.578124 16.921876 16.925781v10.332031c0 9.34375-7.574219 16.921875-16.921876 16.921875h48c9.347657 0 16.921876-7.578125 16.921876-16.921875v-10.332031c0-9.347657-7.574219-16.925781-16.921876-16.925781zm0 0" fill="#0181fb"/><path d="m139.367188 452.609375c0 29.226563-23.691407 52.921875-52.921876 52.921875-29.226562 0-52.921874-23.695312-52.921874-52.921875 0-29.230469 23.695312-52.921875 52.921874-52.921875 29.230469 0 52.921876 23.691406 52.921876 52.921875zm0 0" fill="#e8e8e8"/><path d="m86.445312 399.6875c-8.046874 0-15.671874 1.804688-22.5 5.015625 17.976563 8.457031 30.421876 26.722656 30.421876 47.90625 0 21.179687-12.445313 39.449219-30.421876 47.90625 6.828126 3.210937 14.453126 5.015625 22.5 5.015625 29.230469 0 52.921876-23.695312 52.921876-52.921875 0-29.230469-23.691407-52.921875-52.921876-52.921875zm0 0" fill="#d9d9d9"/><path d="m53.140625 109.085938c0 12.601562-10.214844 22.820312-22.820313 22.820312-12.601562 0-22.820312-10.21875-22.820312-22.820312 0-12.605469 10.21875-22.820313 22.820312-22.820313 12.605469 0 22.820313 10.214844 22.820313 22.820313zm0 0" fill="#0181fb"/><path d="m494.425781 504.070312h-171.996093c-5.566407 0-10.074219-4.511718-10.074219-10.074218v-172c0-5.5625 4.507812-10.074219 10.074219-10.074219h171.996093c5.566407 0 10.074219 4.511719 10.074219 10.074219v172c0 5.5625-4.511719 10.074218-10.074219 10.074218zm0 0" fill="#de9252"/><path d="m460.5 311.921875v192.148437h33.957031c5.546875 0 10.042969-4.5 10.042969-10.046874v-172.019532c0-5.566406-4.511719-10.082031-10.078125-10.082031zm0 0" fill="#d9833b"/><path d="m382.582031 311.921875h51.6875v67.421875h-51.6875zm0 0" fill="#ab632e"/><path d="m86.445312 474.300781c12.257813 0 22.226563-9.972656 22.226563-22.226562 0-12.257813-9.96875-22.230469-22.226563-22.230469-12.253906 0-22.226562 9.972656-22.226562 22.230469 0 12.253906 9.972656 22.226562 22.226562 22.226562zm0-29.453125c3.984376 0 7.226563 3.242188 7.226563 7.226563s-3.242187 7.226562-7.226563 7.226562c-3.984374 0-7.226562-3.242187-7.226562-7.226562s3.242188-7.226563 7.226562-7.226563zm0 0"/><path d="m174.277344 341.660156h-16.757813c-4.863281 0-9.222656-2.515625-11.65625-6.730468-2.429687-4.214844-2.429687-9.246094 0-13.460938l17.835938-30.890625c1.6875 10.152344 17.050781 7.140625 14.796875-2.585937l-4.144532-17.890626c-.910156-3.925781-4.761718-6.429687-8.71875-5.675781l-18.71875 3.589844c-10.214843 1.957031-6.03125 17.1875 4.132813 14.480469l-18.171875 31.472656c-5.144531 8.910156-5.144531 19.550781 0 28.460938 5.144531 8.910156 14.355469 14.230468 24.644531 14.230468h16.757813c9.632812 0 9.644531-15 0-15zm0 0"/><path d="m198.121094 230.957031c2.433594-4.214843 6.792968-6.730469 11.65625-6.730469 4.867187 0 9.226562 2.515626 11.65625 6.730469l23.675781 41.003907c-9.824219-3-14.179687 12.097656-4.292969 14.402343l17.886719 4.164063c3.8125.886718 7.898437-1.542969 8.933594-5.324219l5.03125-18.382813c2.730469-9.984374-12.714844-13.019531-14.796875-2.757812l-23.445313-40.605469c-5.144531-8.910156-14.359375-14.230469-24.644531-14.230469-10.289062 0-19.503906 5.320313-24.648438 14.230469l-10.824218 18.753907c-4.816406 8.339843 8.167968 15.851562 12.988281 7.5zm0 0"/><path d="m279.894531 302.210938c-4.8125-8.339844-17.8125-.851563-12.988281 7.5l6.789062 11.757812c2.433594 4.214844 2.433594 9.246094 0 13.460938-2.433593 4.214843-6.792968 6.730468-11.65625 6.730468h-42.480468c7.945312-7.167968-2.777344-19.078125-9.925782-11.359375l-12.476562 13.476563c-2.738281 2.957031-2.652344 7.550781.199219 10.398437l13.472656 13.476563c7.109375 7.105468 17.335937-4.136719 10.222656-10.992188h40.988281c10.289063 0 19.5-5.320312 24.644532-14.230468 5.144531-8.910157 5.144531-19.550782 0-28.460938zm0 0"/><path d="m504.5 305.351562h-156.320312l7.089843-143.527343h.957031c13.46875 0 24.421876-10.957031 24.421876-24.421875v-10.335938c0-12.609375-9.605469-23.015625-21.882813-24.289062l2.558594-40.371094c1.113281-17.542969-5.644531-34.453125-18.539063-46.394531-12.894531-11.941407-30.273437-17.390625-47.675781-14.9375l-176.5 24.851562c-1.046875.148438-2.085937.308594-3.125.480469-20.941406 3.480469-41.269531 13.191406-58.785156 28.082031-8.421875 7.15625-15.890625 15.246094-22.253907 24.027344-1.351562-.183594-2.726562-.289063-4.125-.289063-16.71875.003907-30.320312 13.605469-30.320312 30.324219s13.601562 30.320313 30.320312 30.320313c.164063 0 .328126-.011719.492188-.011719l8.816406 18.667969c1.238282 2.625 3.878906 4.296875 6.78125 4.296875h17.878906l11.398438 230.785156c-5.539062.992187-10.898438 2.75-16.015625 5.285156-8.632813 4.273438-1.976563 17.71875 6.652344 13.441407 6.28125-3.109376 13.050781-4.683594 20.121093-4.683594 25.046876 0 45.421876 20.375 45.421876 45.421875s-20.375 45.421875-45.421876 45.421875c-25.046874 0-45.421874-20.375-45.421874-45.421875 0-6.957031 1.527343-13.632813 4.542968-19.832031 4.207032-8.648438-9.265625-15.238282-13.488281-6.5625-4.019531 8.261718-6.054687 17.144531-6.054687 26.394531 0 33.316406 27.105468 60.421875 60.421874 60.421875h140.066407 226.042969 51.941406c4.144531 0 7.5-3.359375 7.5-7.5v-192.144532c.003906-4.144531-3.351563-7.5-7.496094-7.5zm-7.5 192.144532h-177.144531v-18c0-9.628906-15-9.644532-15 0v17.984375c-.109375 0-.214844.015625-.324219.015625h-178.304688c12.640626-11.082032 20.644532-27.332032 20.644532-45.421875 0-31.898438-24.851563-58.085938-56.203125-60.261719l-11.359375-229.988281h260.941406l-7.089844 143.527343h-20.804687c-4.144531 0-7.5 3.359376-7.5 7.5v132.644532c0 9.628906 15 9.644531 15 0v-125.144532h55.226562v59.917969c0 4.140625 3.359375 7.5 7.5 7.5h51.6875c4.144531 0 7.5-3.359375 7.5-7.5v-59.917969h55.230469zm-482-388.945313c0-8.449219 6.871094-15.320312 15.320312-15.320312 8.449219 0 15.320313 6.871093 15.320313 15.320312 0 8.445313-6.871094 15.320313-15.320313 15.320313-8.449218 0-15.320312-6.875-15.320312-15.320313zm44.246094 9.09375h215.753906c4.144531 0 7.5-3.359375 7.5-7.5 0-.402343-.039062-.796875-.101562-1.183593-.570313-3.578126-3.660157-6.316407-7.398438-6.316407l-214.9375-.003906c-1.460938-7.351563-5.585938-13.757813-11.328125-18.15625 17.414063-22.585937 42.691406-38.871094 69.210937-43.28125.917969-.152344 1.832032-.292969 2.753907-.421875l176.5-24.851562c12.910156-1.816407 25.820312 2.222656 35.394531 11.089843 9.570312 8.863281 14.585938 21.417969 13.761719 34.4375l-2.613281 41.1875h-26.742188c-3.691406 0-6.753906 2.671875-7.378906 6.183594-.074219.425781-.121094.867187-.121094 1.316406 0 4.144531 3.355469 7.5 7.5 7.5h39.226562c5.199219 0 9.425782 4.226563 9.425782 9.425781v10.332032c0 5.195312-4.226563 9.421875-9.425782 9.421875h-305.066406l-5.679687-12.03125c6.492187-3.765625 11.472656-9.867188 13.765625-17.148438zm367.523437 202.707031v52.417969h-36.6875v-52.417969zm0 0"/></svg>