<svg height="512pt" viewBox="0 0 512 512" width="512pt" xmlns="http://www.w3.org/2000/svg"><path d="m28.257812 477.542969v-285.457031c0-100.398438 81.019532-181.789063 180.957032-181.789063 99.941406 0 180.960937 81.390625 180.960937 181.789063v283.40625" fill="#49cb5c"/><path d="m209.214844 10.296875c-8.308594 0-16.484375.574219-24.5 1.664063 88.355468 12.015624 156.460937 88.074218 156.460937 180.125v283.40625l-312.917969 1.773437v.277344l361.917969-2.050781v-283.40625c0-100.398438-81.019531-181.789063-180.960937-181.789063zm0 0" fill="#07b128"/><path d="m396.777344 506.875h-375.121094c-8.535156 0-15.457031-6.921875-15.457031-15.457031v-.359375c0-8.535156 6.921875-15.457032 15.457031-15.457032h375.121094c8.535156 0 15.457031 6.921876 15.457031 15.457032v.359375c0 8.535156-6.921875 15.457031-15.457031 15.457031zm0 0" fill="#028f5d"/><path d="m67.46875 155.90625c31.734375 0 57.460938-27.027344 57.460938-60.371094 0-20.75-9.964844-39.054687-25.140626-49.917968l-.503906-.453126c-32.15625 24.039063-56.082031 58.554688-66.796875 98.511719l1.632813 1.027344c9.402344 7.054687 20.914062 11.203125 33.347656 11.203125zm0 0" fill="#028f5d"/><path d="m461.121094 207.453125-.046875-46.617187c0-3.015626 2.441406-5.460938 5.453125-5.464844 3.015625-.003906 5.457031-2.449219 5.453125-5.464844l-.019531-22.75c-.003907-3.015625-2.449219-5.457031-5.464844-5.453125l-52.3125.050781c-3.015625.003906-5.457032 2.449219-5.453125 5.464844l.019531 22.75c.003906 3.015625 2.449219 5.457031 5.464844 5.453125s5.460937 2.4375 5.464844 5.453125l.042968 46.617188c.019532 16.621093-7.597656 32.328124-20.65625 42.609374-13.058594 10.277344-20.671875 25.984376-20.65625 42.605469l.191406 197.601563c.007813 8.605468 6.992188 15.574218 15.601563 15.566406l93.019531-.089844c8.605469-.007812 15.578125-6.992187 15.570313-15.597656l-.195313-197.601562c-.015625-16.617188-7.660156-32.3125-20.738281-42.566407-13.078125-10.253906-20.722656-25.945312-20.738281-42.566406zm0 0" fill="#22b27f"/><path d="m502.597656 292.585938c-.015625-16.617188-7.660156-32.3125-20.738281-42.566407-13.078125-10.253906-20.722656-25.945312-20.738281-42.566406l-.046875-46.617187c-.003907-3.015626 2.4375-5.460938 5.453125-5.464844s5.457031-2.449219 5.453125-5.464844l-.023438-22.75c0-3.015625-2.449219-5.457031-5.460937-5.453125l-43.347656.042969c2.703124.320312 4.808593 2.617187 4.808593 5.410156l.023438 22.75c.003906 3.015625-2.4375 5.460938-5.453125 5.464844-1.675782 0-3.175782.761718-4.175782 1.949218.824219.957032 1.324219 2.195313 1.328126 3.554688l.042968 46.617188c.003906 3.988281-.441406 7.917968-1.285156 11.734374 2.703125 12.082032 9.492188 23.007813 19.421875 30.792969 13.078125 10.253907 20.722656 25.949219 20.738281 42.566407l.195313 197.601562c.007812 8.605469-6.964844 15.589844-15.570313 15.597656l-49.867187.050782c.28125.011718.5625.039062.847656.039062l93.019531-.089844c8.605469-.007812 15.578125-6.992187 15.570313-15.597656zm0 0" fill="#09a66d"/><path d="m431.792969 321.5h71v97h-71zm0 0" fill="#ffe469"/><path d="m184.292969 225.460938-15.039063 26.167968c-1.632812 2.84375-1.195312 6.300782.835938 8.644532.535156.621093 1.175781 1.164062 1.925781 1.597656 3.59375 2.0625 8.179687.824218 10.242187-2.765625l.628907-1.09375 14.414062-25.074219c2.675781-4.65625 7.460938-7.433594 12.804688-7.433594s10.128906 2.777344 12.804687 7.433594l25.773438 44.832031-2.046875-.480469c-2.527344-.589843-5.054688.171876-6.820313 1.816407-1.054687.980469-1.839844 2.273437-2.191406 3.78125-.945312 4.035156 1.5625 8.066406 5.59375 9.011719l19.027344 4.449218c.574218.132813 1.148437.199219 1.714844.199219 3.308593 0 6.324218-2.203125 7.230468-5.53125l5.351563-19.636719c1.089843-3.996094-1.265625-8.117187-5.265625-9.207031-3.996094-1.089844-8.117188 1.265625-9.207032 5.265625l-.652343 2.390625-25.503907-44.363281c-5.382812-9.367188-15.03125-14.957032-25.808593-14.957032-2.773438 0-5.464844.375-8.035157 1.082032-7.417968 2.046875-13.777343 6.914062-17.777343 13.871094zm0 0"/><path d="m291.460938 352.101562c5.417968-9.367187 5.433593-20.558593.042968-29.941406l-9.671875-16.820312c-2.0625-3.59375-6.648437-4.828125-10.238281-2.765625-3.59375 2.0625-4.832031 6.648437-2.765625 10.238281l.339844.589844 9.332031 16.234375c2.691406 4.683593 2.683594 10.273437-.023438 14.953125-2.679687 4.632812-7.457031 7.394531-12.78125 7.394531h-46.328124l1.949218-2.117187c1.113282-1.207032 1.75-2.6875 1.925782-4.207032.269531-2.300781-.519532-4.695312-2.355469-6.390625-3.046875-2.804687-7.792969-2.613281-10.597657.433594l-13.273437 14.394531c-2.722656 2.953125-2.636719 7.527344.199219 10.375l14.332031 14.394532c1.46875 1.472656 3.390625 2.210937 5.316406 2.210937 1.914063 0 3.828125-.730469 5.292969-2.1875 2.933594-2.921875 2.945312-7.667969.023438-10.605469l-1.296876-1.300781h44.808594c10.742188 0 20.375-5.5625 25.769532-14.882813zm0 0"/><path d="m143.320312 273.300781c-4.066406.78125-6.730468 4.710938-5.945312 8.78125.78125 4.066407 4.714844 6.734375 8.78125 5.945313l2.441406-.46875-19.890625 34.601562c-.761719 1.328125-1.40625 2.695313-1.953125 4.085938-3.3125 8.429687-2.65625 17.816406 1.996094 25.855468 5.394531 9.320313 15.027344 14.882813 25.769531 14.882813h24.507813c4.140625 0 7.5-3.355469 7.5-7.5 0-4.140625-3.359375-7.5-7.5-7.5h-24.507813c-5.328125 0-10.105469-2.761719-12.785156-7.394531-2.707031-4.679688-2.714844-10.269532-.019531-14.953125l19.566406-34.039063.46875 2.035156c.710938 3.066407 3.207031 5.25 6.132812 5.714844.386719.0625.773438.101563 1.171876.101563.558593 0 1.125-.0625 1.691406-.191407 4.035156-.933593 6.554687-4.960937 5.621094-8.996093l-4.410157-19.113281c-.839843-3.636719-4.195312-6.054688-7.832031-5.792969-.296875.023437-.59375.054687-.890625.113281zm0 0"/><path d="m511.171875 291.902344c-.015625-18.988282-8.597656-36.601563-23.542969-48.316406-11.300781-8.859376-17.789062-22.175782-17.800781-36.53125l-.042969-44.570313c6.15625-.996094 10.875-6.351563 10.867188-12.789063l-.019532-22.675781c-.007812-7.007812-5.957031-12.925781-12.957031-12.925781l-52.144531.046875c-7.054688.007813-12.933594 5.898437-12.929688 12.953125l.023438 22.675781c.007812 6.253907 4.699219 11.792969 10.894531 12.769531l.042969 44.566407c.015625 13.058593-5.34375 25.25-14.800781 34.035156v-51.695313c0-46.628906-17.019531-91.4375-47.929688-126.175781-6.398437-7.195312-17.613281 2.765625-11.203125 9.96875 29.324219 32.960938 44.046875 75.246094 44.132813 119.089844.042969 21.320313 0 42.644531 0 63.964844-7.359375 10.296875-11.394531 22.707031-11.378907 35.769531l.066407 15.578125c-.816407 10.597656 15.058593 12.40625 15.007812 1.59375l-.078125-17.210937c-.011718-14.355469 6.449219-27.683594 17.730469-36.5625 14.921875-11.75 23.472656-29.375 23.453125-48.367188l-.046875-46.464844c-.003906-6.4375-4.730469-11.785156-10.894531-12.769531l-.015625-18.71875 48.027343-.046875.019532 18.722656c-6.160156.992188-10.875 6.351563-10.871094 12.785156l.046875 46.464844c.015625 18.992188 8.597656 36.605469 23.542969 48.324219 11.300781 8.855469 17.789062 22.171875 17.800781 36.527344l.023437 21.3125h-63.105468c-4.140625 0-7.5 3.359375-7.5 7.5v96.679687c0 4.144532 3.359375 7.5 7.5 7.5h63.210937l.0625 63.960938c.003907 4.34375-3.671875 8.035156-8.023437 8.039062l-92.726563.089844h-.007812c-4.425781 0-8.027344-3.597656-8.03125-8.023438l-.082031-134.859374c-.007813-9.675782-15.007813-9.691407-15 .007812l.066406 111.574219h-336.109375c0-83.796875 0-167.589844 0-251.386719 0-20.226562-.519531-40.292969 3.59375-60.261719 9.402343 5.316407 19.890625 8.105469 30.761719 8.105469 35.71875 0 64.777343-30.355469 64.777343-67.671875 0-19.335937-7.90625-37.574219-21.480469-50.328125 27.519532-18.410156 60.535157-29.15625 96.003907-29.15625 36.03125 0 70.585937 10.980469 99.929687 31.757812 7.835938 5.546876 16.59375-6.628906 8.667969-12.242187-31.890625-22.582031-69.445313-34.515625-108.597656-34.515625-104.027344 0-188.65625 84.984375-188.65625 189.445312v276.277344c-29.109375 1.121094-28.375 46.277344.890625 46.277344h50.765625c9.628906 0 9.644531-15 0-15h-50.765625c-10.308594 0-10.449219-16.300781 0-16.300781h350.226562c.003906 5.433593-.484375 11.113281 1.453125 16.300781h-258.871093c-9.628907 0-9.644532 15 0 15l373.203124-.089844c12.535157-.011718 23.023438-10.515625 23.011719-23.054687zm-70.582031 36.328125h55.773437v81.679687h-55.773437zm-320.007813-233.746094c0 29.042969-22.332031 52.667969-49.777343 52.667969-9.625 0-18.871094-2.878906-26.886719-8.34375 10.316406-34.097656 30.765625-63.804688 57.820312-85.566406 11.855469 9.964843 18.84375 25.09375 18.84375 41.242187zm0 0"/></svg>