<svg width="26" height="24" viewBox="0 0 26 24" fill="none" xmlns="http://www.w3.org/2000/svg">
<path d="M13.3475 0.934375C13.2544 0.850927 13.1306 0.804352 13.0018 0.804352C12.8731 0.804352 12.7493 0.850927 12.6562 0.934375L1.14996 11.2393C1.1011 11.2831 1.06222 11.3357 1.03569 11.3941C1.00915 11.4524 0.995512 11.5151 0.995588 11.5785L0.993713 21.25C0.993713 21.7473 1.20443 22.2242 1.5795 22.5758C1.95457 22.9275 2.46328 23.125 2.99371 23.125H8.99996C9.26518 23.125 9.51953 23.0262 9.70707 22.8504C9.89461 22.6746 9.99996 22.4361 9.99996 22.1875V14.2188C9.99996 14.0944 10.0526 13.9752 10.1464 13.8873C10.2402 13.7994 10.3674 13.75 10.5 13.75H15.5C15.6326 13.75 15.7597 13.7994 15.8535 13.8873C15.9473 13.9752 16 14.0944 16 14.2188V22.1875C16 22.4361 16.1053 22.6746 16.2929 22.8504C16.4804 23.0262 16.7347 23.125 17 23.125H23.0037C23.5341 23.125 24.0429 22.9275 24.4179 22.5758C24.793 22.2242 25.0037 21.7473 25.0037 21.25V11.5785C25.0038 11.5151 24.9902 11.4524 24.9636 11.3941C24.9371 11.3357 24.8982 11.2831 24.8493 11.2393L13.3475 0.934375Z" fill="#752BAF"/>
</svg>
